<mxfile host="app.diagrams.net" modified="2024-08-20T22:25:43.339Z" agent="Mozilla/5.0 (Windows NT 10.0; Win64; x64) AppleWebKit/537.36 (KHTML, like Gecko) Chrome/127.0.0.0 Safari/537.36" version="24.7.1" etag="xdPggSrYHeOd7or6VrvJ" type="github">
  <diagram name="PÃ¡gina-1" id="QoD_8E505HvMh-k17_Gl">
    <mxGraphModel>
      <root>
        <mxCell id="0" />
        <mxCell id="1" parent="0" />
      </root>
    </mxGraphModel>
  </diagram>
</mxfile>
